<svg width="567" height="575" viewBox="0 0 567 575" fill="none" xmlns="http://www.w3.org/2000/svg">
<path d="M13.0607 0.93934C12.4749 0.353553 11.5251 0.353553 10.9393 0.93934L1.3934 10.4853C0.807612 11.0711 0.807612 12.0208 1.3934 12.6066C1.97918 13.1924 2.92893 13.1924 3.51472 12.6066L12 4.12132L20.4853 12.6066C21.0711 13.1924 22.0208 13.1924 22.6066 12.6066C23.1924 12.0208 23.1924 11.0711 22.6066 10.4853L13.0607 0.93934ZM13.5 565L13.5 2H10.5L10.5 565H13.5Z" fill="black"/>
<path d="M566.061 564.061C566.646 563.475 566.646 562.525 566.061 561.939L556.515 552.393C555.929 551.808 554.979 551.808 554.393 552.393C553.808 552.979 553.808 553.929 554.393 554.515L562.879 563L554.393 571.485C553.808 572.071 553.808 573.021 554.393 573.607C554.979 574.192 555.929 574.192 556.515 573.607L566.061 564.061ZM12 564.5H565V561.5H12V564.5Z" fill="black"/>
<path d="M13 565L67.5 514.5L132.5 541.5L164 514.5L231.5 483L267 502L300.5 462L351 426L370 397H409.5L454 378H506.5L552.5 353" stroke="#FF0000" stroke-width="5"/>
<path d="M13.5 565L69.5 549.5L116 523.5L141.5 503L164.5 478H191L213 463L230 451L251.5 427.5L275.5 414L311 427.5L351.5 451C361.333 443.167 382.9 427.5 390.5 427.5C398.1 427.5 433.667 418.5 450.5 414L497 405.5L552 384.5" stroke="#0500FF" stroke-width="5"/>
<path d="M15 562.5L41 511L67 469L104 443L170.5 430L207.5 374L259 337L307.5 287.5L354 273L394.5 298.5L454 327.5L497.5 337L555 327.5" stroke="#00FF19" stroke-width="5"/>
</svg>
